<?xml version="1.0" encoding="UTF-8"?>
<svg version="1.1" xmlns="http://www.w3.org/2000/svg" viewBox="1100 1600 1800 800">
<path d="M0 0 C6.68050165 -0.61602987 10.99617554 -0.07768372 16.6015625 3.7109375 C17.06304688 4.13632813 17.52453125 4.56171875 18 5 C18 5.66 18 6.32 18 7 C18.66 7 19.32 7 20 7 C21.26729431 10.80188293 21.15342472 14.37143002 21.15821838 18.33317566 C21.16562535 19.62333956 21.16562535 19.62333956 21.17318195 20.93956739 C21.18858549 23.83234958 21.19692531 26.72510952 21.20532227 29.61791992 C21.21489854 31.68730364 21.22490847 33.75668539 21.23532104 35.82606506 C21.26240329 41.45379455 21.28339488 47.08153246 21.30332303 52.70929122 C21.32516212 58.58699697 21.35256096 64.46467669 21.37937927 70.34236145 C21.42933428 81.47702743 21.47426269 92.61170784 21.51740164 103.74640208 C21.56675003 116.42097564 21.62167704 129.09552308 21.67708123 141.77007139 C21.79094438 167.8466899 21.89777398 193.92333346 22 220 C22.66 220 23.32 220 24 220 C24.18175781 221.42892578 24.18175781 221.42892578 24.3671875 222.88671875 C24.53476563 224.14097656 24.70234375 225.39523437 24.875 226.6875 C25.03742188 227.92886719 25.19984375 229.17023438 25.3671875 230.44921875 C25.92928669 233.60321975 26.78665464 236.06448704 28 239 C28.4140625 241.45703125 28.4140625 241.45703125 28.625 243.8125 C28.73714844 244.99779297 28.73714844 244.99779297 28.8515625 246.20703125 C28.90054687 246.79871094 28.94953125 247.39039063 29 248 C29.66 248 30.32 248 31 248 C31.33 250.64 31.66 253.28 32 256 C32.66 256 33.32 256 34 256 C34.66 258.97 35.32 261.94 36 265 C36.66 265 37.32 265 38 265 C39.25664978 267.90600261 40 269.79604584 40 273 C40.66 273 41.32 273 42 273 C42.33 274.98 42.66 276.96 43 279 C43.66 279 44.32 279 45 279 C46.4606285 281.64738916 47 282.89448334 47 286 C47.66 286 48.32 286 49 286 C49.33 287.32 49.66 288.64 50 290 C50.66 290 51.32 290 52 290 C53.4606285 292.64738916 54 293.89448334 54 297 C54.99 297 55.98 297 57 297 C57 297.99 57 298.98 57 300 C58.32 300.66 59.64 301.32 61 302 C61 302.66 61 303.32 61 304 C61.66 304 62.32 304 63 304 C63.495 305.485 63.495 305.485 64 307 C65.44506802 308.21517083 66.89407821 309.42644647 68.375 310.59765625 C70.0407991 312.03520884 71.37103886 313.53861073 72.75 315.25 C74.70631884 318.02359938 74.70631884 318.02359938 77 319 C77 319.66 77 320.32 77 321 C78.32 321.33 79.64 321.66 81 322 C81 322.99 81 323.98 81 325 C82.32 325.33 83.64 325.66 85 326 C85 326.66 85 327.32 85 328 C86.36125 328.3403125 86.36125 328.3403125 87.75 328.6875 C91.50230342 330.2028533 92.61380084 331.81840112 95 335 C97.11660427 336.31165257 97.11660427 336.31165257 99 337 C99 337.66 99 338.32 99 339 C99.928125 339.103125 100.85625 339.20625 101.8125 339.3125 C105.10936181 340.02358784 105.92344837 340.50813804 108 343 C108.66 343.33 109.32 343.66 110 344 C110 344.66 110 345.32 110 346 C111.98 346.33 113.96 346.66 116 347 C116 347.66 116 348.32 116 349 C117.98 349.66 119.96 350.32 122 351 C122 351.66 122 352.32 122 353 C123.65 353.33 125.3 353.66 127 354 C127 354.66 127 355.32 127 356 C128.03125 356.268125 129.0625 356.53625 130.125 356.8125 C133.6485042 357.80998897 136.76880827 359.2661898 140 361 C140 361.66 140 362.32 140 363 C147.07267096 364.54312821 150.70079823 363.28896376 157 360 C158.21452408 359.41070831 159.43080272 358.82502451 160.6484375 358.2421875 C161.93274077 357.62071891 163.21659506 356.99832164 164.5 356.375 C165.12406738 356.07400391 165.74813477 355.77300781 166.39111328 355.46289062 C169.81314446 353.90538128 169.81314446 353.90538128 172 351 C174 350.33333333 176 349.66666667 178 349 C178.33 348.34 178.66 347.68 179 347 C186.00326264 342.63947798 186.00326264 342.63947798 190 342 C190 341.34 190 340.68 190 340 C191.4609375 338.7109375 191.4609375 338.7109375 193.375 337.375 C194.00148438 336.92898438 194.62796875 336.48296875 195.2734375 336.0234375 C197 335 197 335 199 335 C199 334.34 199 333.68 199 333 C200.609375 331.88671875 200.609375 331.88671875 202.75 330.6875 C205.5682392 329.01633359 207.05333741 327.93254386 209.125 325.3125 C211.46438956 322.42725287 213.5224684 322.08189872 217 321 C217.33 320.01 217.66 319.02 218 318 C218.66 318 219.32 318 220 318 C220.28875 317.401875 220.5775 316.80375 220.875 316.1875 C222 314 222 314 224 311 C224.99 311 225.98 311 227 311 C227.0825 310.443125 227.165 309.88625 227.25 309.3125 C228.23895541 306.26322081 229.84757466 304.34810037 232 302 C232.66 302 233.32 302 234 302 C234.66 300.35 235.32 298.7 236 297 C236.66 297 237.32 297 238 297 C238.33 295.68 238.66 294.36 239 293 C239.66 293 240.32 293 241 293 C241.66 291.02 242.32 289.04 243 287 C243.66 287 244.32 287 245 287 C245.33 285.68 245.66 284.36 246 283 C246.66 283 247.32 283 248 283 C248.0825 282.154375 248.165 281.30875 248.25 280.4375 C249.15733853 276.27886509 250.76541273 273.60417301 253 270 C253.66 270 254.32 270 255 270 C255.14695312 269.1646875 255.14695312 269.1646875 255.296875 268.3125 C256.08383009 264.29631538 256.95942046 260.78745318 258.9375 257.1875 C261.68641013 252.11179703 262.7679712 246.60013091 264 241 C264.66 241 265.32 241 266 241 C266.06058594 240.07316406 266.12117188 239.14632813 266.18359375 238.19140625 C266.26738281 236.99386719 266.35117188 235.79632812 266.4375 234.5625 C266.51871094 233.36753906 266.59992188 232.17257812 266.68359375 230.94140625 C267 228 267 228 268 227 C268.40312225 223.97236395 268.73854136 220.96535847 269.0234375 217.92578125 C269.11152679 216.98994705 269.19961609 216.05411285 269.29037476 215.08992004 C270.25354623 204.13479338 270.45339544 193.17823567 270.625 182.1875 C270.66333043 180.1152207 270.70238983 178.04295476 270.7421875 175.97070312 C270.83648058 170.98058172 270.92107777 165.99038718 271 161 C269.97841797 161.00580078 268.95683594 161.01160156 267.90429688 161.01757812 C259.75315497 161.04976476 251.64143592 160.94759752 243.5 160.5 C242.10587891 160.42845703 242.10587891 160.42845703 240.68359375 160.35546875 C238.45551084 160.24061912 236.22769116 160.12217209 234 160 C234 159.34 234 158.68 234 158 C232.19402344 158.01740234 232.19402344 158.01740234 230.3515625 158.03515625 C228.77604321 158.04453434 227.20052225 158.05363452 225.625 158.0625 C224.8309375 158.07087891 224.036875 158.07925781 223.21875 158.08789062 C217.2265625 158.11328125 217.2265625 158.11328125 215 157 C215 156.34 215 155.68 215 155 C214.360625 154.896875 213.72125 154.79375 213.0625 154.6875 C212.0415625 154.3471875 212.0415625 154.3471875 211 154 C209.95023036 150.85069107 209.89868405 148.61185544 209.9375 145.3125 C209.94652344 144.31863281 209.95554687 143.32476563 209.96484375 142.30078125 C209.98224609 141.16189453 209.98224609 141.16189453 210 140 C210.99 139.67 211.98 139.34 213 139 C213.144375 138.4225 213.28875 137.845 213.4375 137.25 C214.21565674 134.13737304 215.85543552 132.33952489 218 130 C218.66 130 219.32 130 220 130 C220.66 128.35 221.32 126.7 222 125 C222.66 125 223.32 125 224 125 C224 124.01 224 123.02 224 122 C225.12092234 120.84511031 226.2519932 119.69850062 227.4296875 118.6015625 C230.05287658 115.92617065 232.21056829 112.88872894 234.44921875 109.890625 C236 108 236 108 238 107 C238.33 106.01 238.66 105.02 239 104 C239.66 104 240.32 104 241 104 C241.66 102.68 242.32 101.36 243 100 C243.66 100 244.32 100 245 100 C245.061875 99.278125 245.12375 98.55625 245.1875 97.8125 C246.26170251 94.09410668 248.18434566 92.6236779 251 90 C253.48038971 87.09612912 255.87504052 84.16423246 258.1875 81.125 C258.785625 80.42375 259.38375 79.7225 260 79 C260.66 79 261.32 79 262 79 C262.4021875 77.6078125 262.4021875 77.6078125 262.8125 76.1875 C263.90977245 73.24218975 264.53357169 71.84982123 267 70 C267.66 70 268.32 70 269 70 C269.103125 69.360625 269.20625 68.72125 269.3125 68.0625 C269.6528125 67.0415625 269.6528125 67.0415625 270 66 C271.485 65.505 271.485 65.505 273 65 C273.33 64.01 273.66 63.02 274 62 C274.66 62 275.32 62 276 62 C276.0825 61.443125 276.165 60.88625 276.25 60.3125 C277.23895541 57.26322081 278.84757466 55.34810037 281 53 C281.66 53 282.32 53 283 53 C283.66 51.35 284.32 49.7 285 48 C285.66 48 286.32 48 287 48 C287.33 46.68 287.66 45.36 288 44 C288.66 44 289.32 44 290 44 C290.185625 43.34 290.37125 42.68 290.5625 42 C292.60450375 37.73842696 295.40492127 34.0835545 299 31 C301.73046875 30.265625 301.73046875 30.265625 304 30 C304 29.34 304 28.68 304 28 C311.98795181 26.59036145 311.98795181 26.59036145 316 28 C318.3125 29.9375 318.3125 29.9375 320 32 C320 32.66 320 33.32 320 34 C320.99 34.33 321.98 34.66 323 35 C323.33 36.98 323.66 38.96 324 41 C324.66 41 325.32 41 326 41 C326.83819158 42.62249941 327.6704116 44.24808497 328.5 45.875 C328.9640625 46.77992187 329.428125 47.68484375 329.90625 48.6171875 C331 51 331 51 331 53 C331.66 53 332.32 53 333 53 C333.33 54.65 333.66 56.3 334 58 C334.66 58 335.32 58 336 58 C337.25664978 60.90600261 338 62.79604584 338 66 C338.66 66 339.32 66 340 66 C340.33 67.98 340.66 69.96 341 72 C341.66 72 342.32 72 343 72 C344.25664978 74.90600261 345 76.79604584 345 80 C345.66 80 346.32 80 347 80 C347.84069415 81.60032137 348.67231505 83.20541171 349.5 84.8125 C349.9640625 85.70582031 350.428125 86.59914063 350.90625 87.51953125 C352 90 352 90 352 93 C352.66 93 353.32 93 354 93 C354.33 94.65 354.66 96.3 355 98 C355.66 98 356.32 98 357 98 C357.433125 99.4540625 357.433125 99.4540625 357.875 100.9375 C358.64214682 104.10664203 358.64214682 104.10664203 361 105 C361.625 108.0625 361.625 108.0625 362 111 C362.66 111 363.32 111 364 111 C364.66 113.31 365.32 115.62 366 118 C366.66 118 367.32 118 368 118 C368.33 120.31 368.66 122.62 369 125 C369.99 125.33 370.98 125.66 372 126 C372.33 127.98 372.66 129.96 373 132 C373.66 132 374.32 132 375 132 C375.33 133.65 375.66 135.3 376 137 C376.66 137 377.32 137 378 137 C378.66 139.97 379.32 142.94 380 146 C380.66 146 381.32 146 382 146 C384.66467584 150.55215455 385.56458217 153.7305664 385 159 C383.5 162.4375 383.5 162.4375 382 165 C381.01 165 380.02 165 379 165 C379 165.66 379 166.32 379 167 C376.12981559 168.43509221 373.66456277 168.11158506 370.4609375 168.09765625 C369.15898438 168.09443359 367.85703125 168.09121094 366.515625 168.08789062 C365.13541601 168.07953466 363.75520768 168.07106971 362.375 168.0625 C360.98698074 168.05748501 359.59895978 168.0529221 358.2109375 168.04882812 C354.80724868 168.03700976 351.40364561 168.02053434 348 168 C348.00785522 169.30481323 348.00785522 169.30481323 348.01586914 170.63598633 C348.16876978 199.93678087 348.16876978 199.93678087 347.5625 211.4375 C347.52326416 212.21005127 347.48402832 212.98260254 347.44360352 213.77856445 C347.13437985 218.86562015 347.13437985 218.86562015 346 220 C345.70151 221.84846443 345.46107178 223.70637897 345.24609375 225.56640625 C345.11396484 226.69111328 344.98183594 227.81582031 344.84570312 228.97460938 C344.64364258 230.75061523 344.64364258 230.75061523 344.4375 232.5625 C344.29892578 233.75037109 344.16035156 234.93824219 344.01757812 236.16210938 C343.67452352 239.10764722 343.33551453 242.05359533 343 245 C342.34 245 341.68 245 341 245 C340.67 248.63 340.34 252.26 340 256 C339.34 256 338.68 256 338 256 C337.93941406 256.67546875 337.87882812 257.3509375 337.81640625 258.046875 C337.73261719 258.93890625 337.64882812 259.8309375 337.5625 260.75 C337.48128906 261.63171875 337.40007812 262.5134375 337.31640625 263.421875 C337.03761535 265.69350452 336.61209423 267.79851823 336 270 C335.34 270 334.68 270 334 270 C333.9175 271.11375 333.835 272.2275 333.75 273.375 C333.12080974 278.6151219 331.11369129 283.20241234 329 288 C328.34 288 327.68 288 327 288 C326.67 290.31 326.34 292.62 326 295 C325.34 295 324.68 295 324 295 C323.34 297.97 322.68 300.94 322 304 C321.34 304 320.68 304 320 304 C319.67 305.65 319.34 307.3 319 309 C318.34 309 317.68 309 317 309 C316.855625 309.598125 316.71125 310.19625 316.5625 310.8125 C316.1127561 312.56150404 315.57107659 314.28677023 315 316 C314.34 316 313.68 316 313 316 C312.67 317.32 312.34 318.64 312 320 C311.34 320 310.68 320 310 320 C309.67 321.98 309.34 323.96 309 326 C308.01 326.33 307.02 326.66 306 327 C305.67 328.65 305.34 330.3 305 332 C304.34 332 303.68 332 303 332 C302.34 333.65 301.68 335.3 301 337 C300.34 337 299.68 337 299 337 C298.67 338.32 298.34 339.64 298 341 C297.34 341 296.68 341 296 341 C295.6596875 342.0828125 295.6596875 342.0828125 295.3125 343.1875 C293.74790257 346.54020878 291.63463827 348.43122769 289 351 C287.70480005 353.16620544 287.70480005 353.16620544 287 355 C286.01 355 285.02 355 284 355 C284 355.99 284 356.98 284 358 C283.34 358 282.68 358 282 358 C281.34 359.32 280.68 360.64 280 362 C279.34 362 278.68 362 278 362 C277.67 362.99 277.34 363.98 277 365 C276.34 365 275.68 365 275 365 C274.34 366.32 273.68 367.64 273 369 C272.34 369 271.68 369 271 369 C270.731875 369.598125 270.46375 370.19625 270.1875 370.8125 C269.00082594 372.99847854 267.90400887 374.41332594 266 376 C265.34 376 264.68 376 264 376 C264 376.66 264 377.32 264 378 C263.360625 378.103125 262.72125 378.20625 262.0625 378.3125 C261.0415625 378.6528125 261.0415625 378.6528125 260 379 C259.67 379.99 259.34 380.98 259 382 C257.0625 384.1875 257.0625 384.1875 255 386 C254.34 386 253.68 386 253 386 C253 386.66 253 387.32 253 388 C250.48636092 389.72363822 248.11635446 390.95768929 245.25 392 C244.5075 392.33 243.765 392.66 243 393 C242.67 393.99 242.34 394.98 242 396 C241.01 396.33 240.02 396.66 239 397 C238.67 397.66 238.34 398.32 238 399 C234.9375 399.625 234.9375 399.625 232 400 C231.67 400.99 231.34 401.98 231 403 C228.33916031 404.99396257 225.38757675 407 222 407 C222 407.66 222 408.32 222 409 C218.91190305 410.76462683 217.76687864 411 214 411 C214 411.66 214 412.32 214 413 C212.39967863 413.84069415 210.79458829 414.67231505 209.1875 415.5 C208.29417969 415.9640625 207.40085937 416.428125 206.48046875 416.90625 C204 418 204 418 201 418 C201 418.66 201 419.32 201 420 C199.35 420.33 197.7 420.66 196 421 C196 421.66 196 422.32 196 423 C193.03 423.66 190.06 424.32 187 425 C187 425.66 187 426.32 187 427 C184.69 427.33 182.38 427.66 180 428 C180 428.66 180 429.32 180 430 C176.49223216 431.60355101 173.85645121 432.22036864 170 432 C170 432.66 170 433.32 170 434 C167.03 434.33 164.06 434.66 161 435 C161 435.66 161 436.32 161 437 C155.95885883 438.00984399 151.11744878 438.18327768 146 438.1875 C145.21882813 438.19974609 144.43765625 438.21199219 143.6328125 438.22460938 C139.00493195 438.23629594 135.35628165 437.74122762 131 436 C129.88625 435.62875 128.7725 435.2575 127.625 434.875 C126.75875 434.58625 125.8925 434.2975 125 434 C125 433.34 125 432.68 125 432 C124.05125 431.9175 123.1025 431.835 122.125 431.75 C117.11022533 431.06008234 112.61545074 428.99662356 108 427 C108 426.34 108 425.68 108 425 C104.7 424.34 101.4 423.68 98 423 C98 422.34 98 421.68 98 421 C96.02 420.67 94.04 420.34 92 420 C92 419.34 92 418.68 92 418 C89.36 417.34 86.72 416.68 84 416 C84 415.34 84 414.68 84 414 C82.8553125 413.690625 82.8553125 413.690625 81.6875 413.375 C76.50101406 411.44105609 71.80966916 408.7214854 67 406 C67 405.34 67 404.68 67 404 C66.4225 403.896875 65.845 403.79375 65.25 403.6875 C62.66864537 402.89875275 61.12109722 401.64213978 59 400 C58.01 399.67 57.02 399.34 56 399 C55.67 398.34 55.34 397.68 55 397 C54.175 396.67 53.35 396.34 52.5 396 C50 395 50 395 49 393 C48.01 392.67 47.02 392.34 46 392 C45.67 391.34 45.34 390.68 45 390 C42.98330173 388.86649466 42.98330173 388.86649466 41 388 C41 387.34 41 386.68 41 386 C40.2575 385.731875 39.515 385.46375 38.75 385.1875 C36.10938051 384.04723249 34.14447156 382.90619694 32 381 C32 380.34 32 379.68 32 379 C31.4225 378.9175 30.845 378.835 30.25 378.75 C27.3460664 377.78202213 25.96259396 376.31305716 24 374 C24 373.34 24 372.68 24 372 C23.01 371.67 22.02 371.34 21 371 C21 370.34 21 369.68 21 369 C19.8553125 368.6596875 19.8553125 368.6596875 18.6875 368.3125 C15.41576791 366.71467735 14.72329673 365.13326678 13 362 C12.01 361.34 11.02 360.68 10 360 C10 359.34 10 358.68 10 358 C9.01 357.67 8.02 357.34 7 357 C4.8125 355.125 4.8125 355.125 3 353 C3 352.01 3 351.02 3 350 C2.34 350 1.68 350 1 350 C-1.18673101 347.83154251 -3.06534315 345.39381541 -5 343 C-5.928125 341.88625 -5.928125 341.88625 -6.875 340.75 C-8 339 -8 339 -8 336 C-8.66 336 -9.32 336 -10 336 C-13.1754706 333.61839705 -13.92577836 330.71845952 -15 327 C-15.66 327 -16.32 327 -17 327 C-17.33 325.68 -17.66 324.36 -18 323 C-18.66 323 -19.32 323 -20 323 C-21.4606285 320.35261084 -22 319.10551666 -22 316 C-22.66 316 -23.32 316 -24 316 C-25.42396556 313.15206887 -26.84706507 310.30375496 -28.265625 307.453125 C-29.40519415 305.18425309 -30.56101507 302.92345757 -31.734375 300.671875 C-32.27578125 299.62515625 -32.8171875 298.5784375 -33.375 297.5 C-33.87773438 296.5409375 -34.38046875 295.581875 -34.8984375 294.59375 C-36 292 -36 292 -36 288 C-36.66 288 -37.32 288 -38 288 C-38.33 285.69 -38.66 283.38 -39 281 C-39.66 281 -40.32 281 -41 281 C-42.19287411 277.12315913 -43 274.08378077 -43 270 C-43.66 270 -44.32 270 -45 270 C-47.90409903 261.62538885 -49.68035855 253.87005023 -50 245 C-50.66 245 -51.32 245 -52 245 C-52.13277344 243.85660156 -52.26554687 242.71320313 -52.40234375 241.53515625 C-52.5805031 240.0442438 -52.75890082 238.55335982 -52.9375 237.0625 C-53.02451172 236.30775391 -53.11152344 235.55300781 -53.20117188 234.77539062 C-53.34324099 231.07812542 -53.34324099 231.07812542 -55 228 C-55.98231729 221.07266309 -56.17753884 214.04823588 -56.30981445 207.0612793 C-56.3301367 206.12348192 -56.35045895 205.18568455 -56.37139702 204.21946907 C-56.43638658 201.10863111 -56.49428677 197.99772204 -56.55078125 194.88671875 C-56.57159571 193.79185339 -56.59241016 192.69698803 -56.61385536 191.56894493 C-57.13938344 163.41633841 -57.18770429 135.26261781 -57.18511117 107.10620201 C-57.18546666 101.42241193 -57.19722317 95.7386815 -57.2110464 90.05491048 C-57.2241251 84.47248316 -57.22948736 78.89008277 -57.22884732 73.30764025 C-57.22859492 70.01722653 -57.23226394 66.72690398 -57.24202538 63.43650246 C-57.25181332 59.81542503 -57.24895805 56.19456722 -57.24291992 52.57348633 C-57.24853943 51.51352951 -57.25415894 50.45357269 -57.25994873 49.36149597 C-57.22784628 41.79171427 -56.85004514 34.20585321 -52 28 C-49.40625 26.26953125 -49.40625 26.26953125 -46.5 24.8125 C-43.53466067 23.30193064 -40.77313238 21.84875492 -38 20 C-37.01 20 -36.02 20 -35 20 C-35 19.34 -35 18.68 -35 18 C-32.35261084 16.5393715 -31.10551666 16 -28 16 C-28 15.34 -28 14.68 -28 14 C-26.02 13.67 -24.04 13.34 -22 13 C-22 12.34 -22 11.68 -22 11 C-19.09399739 9.74335022 -17.20395416 9 -14 9 C-14 8.34 -14 7.68 -14 7 C-9.35796103 4.46690767 -5.34844008 2.53484401 0 2 C0 1.34 0 0.68 0 0 Z " fill="#00185D" transform="translate(1214,1780)"/>
<path d="M0 0 C6.68050165 -0.61602987 10.99617554 -0.07768372 16.6015625 3.7109375 C17.06304688 4.13632813 17.52453125 4.56171875 18 5 C18 5.66 18 6.32 18 7 C18.66 7 19.32 7 20 7 C21.26729431 10.80188293 21.15342472 14.37143002 21.15821838 18.33317566 C21.16562535 19.62333956 21.16562535 19.62333956 21.17318195 20.93956739 C21.18858549 23.83234958 21.19692531 26.72510952 21.20532227 29.61791992 C21.21489854 31.68730364 21.22490847 33.75668539 21.23532104 35.82606506 C21.26240329 41.45379455 21.28339488 47.08153246 21.30332303 52.70929122 C21.32516212 58.58699697 21.35256096 64.46467669 21.37937927 70.34236145 C21.42933428 81.47702743 21.47426269 92.61170784 21.51740164 103.74640208 C21.56675003 116.42097564 21.62167704 129.09552308 21.67708123 141.77007139 C21.79094438 167.8466899 21.89777398 193.92333346 22 220 C22.66 220 23.32 220 24 220 C24.18175781 221.42892578 24.18175781 221.42892578 24.3671875 222.88671875 C24.53476563 224.14097656 24.70234375 225.39523437 24.875 226.6875 C25.03742188 227.92886719 25.19984375 229.17023438 25.3671875 230.44921875 C25.92928669 233.60321975 26.78665464 236.06448704 28 239 C28.4140625 241.45703125 28.4140625 241.45703125 28.625 243.8125 C28.73714844 244.99779297 28.73714844 244.99779297 28.8515625 246.20703125 C28.90054687 246.79871094 28.94953125 247.39039063 29 248 C29.66 248 30.32 248 31 248 C31.33 250.64 31.66 253.28 32 256 C32.66 256 33.32 256 34 256 C34.66 258.97 35.32 261.94 36 265 C36.66 265 37.32 265 38 265 C39.25664978 267.90600261 40 269.79604584 40 273 C40.66 273 41.32 273 42 273 C42.33 274.98 42.66 276.96 43 279 C43.66 279 44.32 279 45 279 C46.4606285 281.64738916 47 282.89448334 47 286 C47.66 286 48.32 286 49 286 C49.33 287.32 49.66 288.64 50 290 C50.66 290 51.32 290 52 290 C53.4606285 292.64738916 54 293.89448334 54 297 C54.99 297 55.98 297 57 297 C57 297.99 57 298.98 57 300 C58.32 300.66 59.64 301.32 61 302 C61 302.66 61 303.32 61 304 C61.66 304 62.32 304 63 304 C63.495 305.485 63.495 305.485 64 307 C65.44506802 308.21517083 66.89407821 309.42644647 68.375 310.59765625 C70.0407991 312.03520884 71.37103886 313.53861073 72.75 315.25 C74.70631884 318.02359938 74.70631884 318.02359938 77 319 C77 319.66 77 320.32 77 321 C78.32 321.33 79.64 321.66 81 322 C81 322.99 81 323.98 81 325 C82.32 325.33 83.64 325.66 85 326 C85 326.66 85 327.32 85 328 C86.36125 328.3403125 86.36125 328.3403125 87.75 328.6875 C91.50230342 330.2028533 92.61380084 331.81840112 95 335 C97.11660427 336.31165257 97.11660427 336.31165257 99 337 C99 337.66 99 338.32 99 339 C99.928125 339.103125 100.85625 339.20625 101.8125 339.3125 C105.10936181 340.02358784 105.92344837 340.50813804 108 343 C108.66 343.33 109.32 343.66 110 344 C110 344.66 110 345.32 110 346 C111.98 346.33 113.96 346.66 116 347 C116 347.66 116 348.32 116 349 C117.98 349.66 119.96 350.32 122 351 C122 351.66 122 352.32 122 353 C123.65 353.33 125.3 353.66 127 354 C127 354.66 127 355.32 127 356 C128.03125 356.268125 129.0625 356.53625 130.125 356.8125 C133.6485042 357.80998897 136.76880827 359.2661898 140 361 C140 361.66 140 362.32 140 363 C140.61875 363.103125 141.2375 363.20625 141.875 363.3125 C144 364 144 364 146 367 C146.25396729 369.96681213 146.25396729 369.96681213 146.25878906 373.64282227 C146.26404602 374.64815506 146.26404602 374.64815506 146.26940918 375.67379761 C146.27820849 377.88810598 146.27238453 380.10209466 146.265625 382.31640625 C146.26697201 383.85432497 146.26891285 385.39224327 146.27142334 386.93016052 C146.27437202 390.15229346 146.27008463 393.3743155 146.26074219 396.59643555 C146.24933815 400.7316217 146.25591464 404.86654852 146.26788712 409.0017252 C146.27510448 412.17667098 146.27281854 415.35155499 146.26763153 418.52650261 C146.26629518 420.05157438 146.26794223 421.57665172 146.27259064 423.101717 C146.27765498 425.23015393 146.26994782 427.35816701 146.25878906 429.48657227 C146.25719788 430.69886002 146.25560669 431.91114777 146.25396729 433.16017151 C146 436 146 436 144 438 C139.14547952 438.37342465 135.51787919 437.73025161 131 436 C129.88625 435.62875 128.7725 435.2575 127.625 434.875 C126.75875 434.58625 125.8925 434.2975 125 434 C125 433.34 125 432.68 125 432 C124.05125 431.9175 123.1025 431.835 122.125 431.75 C117.11022533 431.06008234 112.61545074 428.99662356 108 427 C108 426.34 108 425.68 108 425 C104.7 424.34 101.4 423.68 98 423 C98 422.34 98 421.68 98 421 C96.02 420.67 94.04 420.34 92 420 C92 419.34 92 418.68 92 418 C89.36 417.34 86.72 416.68 84 416 C84 415.34 84 414.68 84 414 C82.8553125 413.690625 82.8553125 413.690625 81.6875 413.375 C76.50101406 411.44105609 71.80966916 408.7214854 67 406 C67 405.34 67 404.68 67 404 C66.4225 403.896875 65.845 403.79375 65.25 403.6875 C62.66864537 402.89875275 61.12109722 401.64213978 59 400 C58.01 399.67 57.02 399.34 56 399 C55.67 398.34 55.34 397.68 55 397 C54.175 396.67 53.35 396.34 52.5 396 C50 395 50 395 49 393 C48.01 392.67 47.02 392.34 46 392 C45.67 391.34 45.34 390.68 45 390 C42.98330173 388.86649466 42.98330173 388.86649466 41 388 C41 387.34 41 386.68 41 386 C40.2575 385.731875 39.515 385.46375 38.75 385.1875 C36.10938051 384.04723249 34.14447156 382.90619694 32 381 C32 380.34 32 379.68 32 379 C31.4225 378.9175 30.845 378.835 30.25 378.75 C27.3460664 377.78202213 25.96259396 376.31305716 24 374 C24 373.34 24 372.68 24 372 C23.01 371.67 22.02 371.34 21 371 C21 370.34 21 369.68 21 369 C19.8553125 368.6596875 19.8553125 368.6596875 18.6875 368.3125 C15.41576791 366.71467735 14.72329673 365.13326678 13 362 C12.01 361.34 11.02 360.68 10 360 C10 359.34 10 358.68 10 358 C9.01 357.67 8.02 357.34 7 357 C4.8125 355.125 4.8125 355.125 3 353 C3 352.01 3 351.02 3 350 C2.34 350 1.68 350 1 350 C-1.18673101 347.83154251 -3.06534315 345.39381541 -5 343 C-5.928125 341.88625 -5.928125 341.88625 -6.875 340.75 C-8 339 -8 339 -8 336 C-8.66 336 -9.32 336 -10 336 C-13.1754706 333.61839705 -13.92577836 330.71845952 -15 327 C-15.66 327 -16.32 327 -17 327 C-17.33 325.68 -17.66 324.36 -18 323 C-18.66 323 -19.32 323 -20 323 C-21.4606285 320.35261084 -22 319.10551666 -22 316 C-22.66 316 -23.32 316 -24 316 C-25.42396556 313.15206887 -26.84706507 310.30375496 -28.265625 307.453125 C-29.40519415 305.18425309 -30.56101507 302.92345757 -31.734375 300.671875 C-32.27578125 299.62515625 -32.8171875 298.5784375 -33.375 297.5 C-33.87773438 296.5409375 -34.38046875 295.581875 -34.8984375 294.59375 C-36 292 -36 292 -36 288 C-36.66 288 -37.32 288 -38 288 C-38.33 285.69 -38.66 283.38 -39 281 C-39.66 281 -40.32 281 -41 281 C-42.19287411 277.12315913 -43 274.08378077 -43 270 C-43.66 270 -44.32 270 -45 270 C-47.90409903 261.62538885 -49.68035855 253.87005023 -50 245 C-50.66 245 -51.32 245 -52 245 C-52.13277344 243.85660156 -52.26554687 242.71320313 -52.40234375 241.53515625 C-52.5805031 240.0442438 -52.75890082 238.55335982 -52.9375 237.0625 C-53.02451172 236.30775391 -53.11152344 235.55300781 -53.20117188 234.77539062 C-53.34324099 231.07812542 -53.34324099 231.07812542 -55 228 C-55.98231729 221.07266309 -56.17753884 214.04823588 -56.30981445 207.0612793 C-56.3301367 206.12348192 -56.35045895 205.18568455 -56.37139702 204.21946907 C-56.43638658 201.10863111 -56.49428677 197.99772204 -56.55078125 194.88671875 C-56.57159571 193.79185339 -56.59241016 192.69698803 -56.61385536 191.56894493 C-57.13938344 163.41633841 -57.18770429 135.26261781 -57.18511117 107.10620201 C-57.18546666 101.42241193 -57.19722317 95.7386815 -57.2110464 90.05491048 C-57.2241251 84.47248316 -57.22948736 78.89008277 -57.22884732 73.30764025 C-57.22859492 70.01722653 -57.23226394 66.72690398 -57.24202538 63.43650246 C-57.25181332 59.81542503 -57.24895805 56.19456722 -57.24291992 52.57348633 C-57.24853943 51.51352951 -57.25415894 50.45357269 -57.25994873 49.36149597 C-57.22784628 41.79171427 -56.85004514 34.20585321 -52 28 C-49.40625 26.26953125 -49.40625 26.26953125 -46.5 24.8125 C-43.53466067 23.30193064 -40.77313238 21.84875492 -38 20 C-37.01 20 -36.02 20 -35 20 C-35 19.34 -35 18.68 -35 18 C-32.35261084 16.5393715 -31.10551666 16 -28 16 C-28 15.34 -28 14.68 -28 14 C-26.02 13.67 -24.04 13.34 -22 13 C-22 12.34 -22 11.68 -22 11 C-19.09399739 9.74335022 -17.20395416 9 -14 9 C-14 8.34 -14 7.68 -14 7 C-9.35796103 4.46690767 -5.34844008 2.53484401 0 2 C0 1.34 0 0.68 0 0 Z " fill="#14B884" transform="translate(1214,1780)"/>
<path d="M0 0 C12.87 0 25.74 0 39 0 C50.02904101 13.68159518 50.02904101 13.68159518 52.53125 20.03125 C55.50327629 27.16350308 59.16043497 33.54123336 63.30108643 40.04968262 C65.11386928 42.91984486 66.86378026 45.82769682 68.6171875 48.734375 C68.9721933 49.32099915 69.3271991 49.90762329 69.69296265 50.51202393 C74.41021552 58.31484131 79.04893367 66.164641 83.69033813 74.01272583 C88.05499811 81.39251569 92.4422803 88.75634475 96.91015625 96.07421875 C97.304841 96.7210965 97.69952576 97.36797424 98.10617065 98.03445435 C99.98038773 101.10402328 101.85959028 104.17038932 103.74609375 107.23242188 C104.40867187 108.31458984 105.07125 109.39675781 105.75390625 110.51171875 C106.33470947 111.45490967 106.9155127 112.39810059 107.51391602 113.36987305 C108.92219308 115.8622944 110.00888011 118.31805691 111 121 C111.66 121 112.32 121 113 121 C113.26699707 120.28787354 113.53399414 119.57574707 113.80908203 118.84204102 C115.0347931 115.91696875 116.4664359 113.27169697 118.0546875 110.52734375 C118.66304443 109.47361572 119.27140137 108.4198877 119.89819336 107.33422852 C120.55053955 106.21330811 121.20288574 105.0923877 121.875 103.9375 C122.5581178 102.75908752 123.24114078 101.58062007 123.92407227 100.40209961 C128.82648634 91.95617407 133.82163485 83.56811414 138.8671875 75.20703125 C142.46481131 69.24060639 146.01377455 63.24559732 149.5625 57.25 C150.22362793 56.13375244 150.88475586 55.01750488 151.56591797 53.86743164 C154.53102014 48.8610153 157.4950862 43.85398805 160.45703125 38.84570312 C162.5758894 35.26318579 164.69660808 31.68177477 166.81832886 28.10095215 C167.63501319 26.72186961 168.45105418 25.34240586 169.26638794 23.96252441 C170.41680107 22.01568522 171.56950819 20.07022018 172.72265625 18.125 C173.70890991 16.45824219 173.70890991 16.45824219 174.71508789 14.7578125 C177.73459785 9.79186558 180.87973852 4.90326804 184 0 C196.87 0 209.74 0 223 0 C223 65.34 223 130.68 223 198 C208.81 198 194.62 198 180 198 C178.41465553 196.41465553 178.85883803 194.79010526 178.84178162 192.58982849 C178.82709839 191.16156738 178.82709839 191.16156738 178.81211853 189.70445251 C178.80636307 188.65141434 178.8006076 187.59837616 178.79467773 186.51342773 C178.78477814 185.41112823 178.77487854 184.30882874 178.76467896 183.17312622 C178.73295513 179.50997098 178.70826367 175.84680274 178.68359375 172.18359375 C178.66303361 169.6515315 178.6420374 167.11947275 178.62062073 164.5874176 C178.57096461 158.59154997 178.52572459 152.59566458 178.48259836 146.59974772 C178.43326728 139.7751549 178.37833389 132.95061084 178.32291877 126.12606514 C178.20902442 112.08408889 178.10220169 98.04206587 178 84 C165.09336586 105.15645445 165.09336586 105.15645445 152.5 126.5 C146.67991492 136.49684996 140.76076324 146.42912733 134.75 156.3125 C134.21499878 157.19252686 134.21499878 157.19252686 133.66918945 158.09033203 C132.0220838 160.7978505 130.36826608 163.49987794 128.69116211 166.18896484 C127.00045762 168.90619405 127.00045762 168.90619405 125.77954102 171.50244141 C124.17237088 174.67838876 123.10637877 176.54158823 119.74853516 177.93286133 C113.28102697 179.29042507 106.23080258 179.32607184 100 177 C94.763327 172.73737717 92.29983566 166.09674662 89.52832031 160.10644531 C86.76628393 154.49236369 83.33847371 149.28409752 80 144 C78.62447785 141.77667073 77.25204296 139.55142826 75.8828125 137.32421875 C75.22313477 136.25220215 74.56345703 135.18018555 73.88378906 134.07568359 C70.70658449 128.88822595 67.5826478 123.66939566 64.46166992 118.44799805 C60.43839415 111.72004535 56.38285227 105.01207422 52.3125 98.3125 C51.69938965 97.30098877 51.0862793 96.28947754 50.45458984 95.24731445 C49.60501709 93.85065552 49.60501709 93.85065552 48.73828125 92.42578125 C48.23337158 91.59473877 47.72846191 90.76369629 47.20825195 89.9074707 C46.13997448 88.06698448 46.13997448 88.06698448 45 87 C44.67 123.63 44.34 160.26 44 198 C29.48 198 14.96 198 0 198 C0 132.66 0 67.32 0 0 Z " fill="#001E62" transform="translate(1653,1902)"/>
<path d="M0 0 C-2.1876021 8.19092535 -5.32957982 15.85195637 -8.6875 23.625 C-9.45416992 25.41744141 -9.45416992 25.41744141 -10.23632812 27.24609375 C-11.4861125 30.1661507 -12.74075194 33.08401477 -14 36 C-19.3615862 34.29198414 -24.50308967 32.4116 -29.625 30.0625 C-48.08471097 22.02262588 -71.07591233 18.13624689 -90.71484375 24.0703125 C-93.86557795 25.35214966 -96.30657676 26.92813597 -99 29 C-99.99 29.33 -100.98 29.66 -102 30 C-104.82165577 34.59640746 -106.2867752 39.99380478 -105.7734375 45.375 C-104.68573539 49.66779767 -103.02516118 52.48558006 -99.5 55.1875 C-87.32264001 62.23145626 -72.46886483 64.67713512 -58.9375 68 C-11.52420745 79.64615109 -11.52420745 79.64615109 1.9375 99.375 C9.09269379 111.64345728 9.8288586 125.96710902 7.30859375 139.79296875 C6.39699307 142.98547823 5.31828893 145.95429799 4 149 C3.59910156 149.93972656 3.19820312 150.87945313 2.78515625 151.84765625 C-4.31745247 166.48520639 -17.88038167 176.02922285 -32.6875 181.87109375 C-67.82545147 193.84617391 -109.82870116 190.15553514 -143.13818359 174.20825195 C-148.00510892 171.78535521 -152.52104757 169.06384377 -157 166 C-154.60552851 158.19085255 -151.37188113 150.90345632 -147.9375 143.5 C-147.12442383 141.71335937 -147.12442383 141.71335937 -146.29492188 139.890625 C-145.77349609 138.76140625 -145.25207031 137.6321875 -144.71484375 136.46875 C-144.24167725 135.44201172 -143.76851074 134.41527344 -143.28100586 133.35742188 C-142 131 -142 131 -140 130 C-137.8472939 131.12196123 -135.81481381 132.29501813 -133.75 133.5625 C-111.5661337 146.6486013 -83.23381139 154.43516182 -57.5625 148.375 C-51.50388767 146.7864129 -46.19031742 144.82521399 -42 140 C-39.25424716 135.28073731 -38.30880258 131.43083688 -39 126 C-43.5641527 117.37882268 -51.13067315 113.97698297 -60 111 C-69.1987829 108.19727589 -78.53927709 105.85933708 -87.8671875 103.53125 C-132.74305585 92.2662843 -132.74305585 92.2662843 -145.5625 73.7421875 C-153.71772633 59.81034252 -155.07957964 43.7094156 -151.02734375 28.19140625 C-145.78059381 11.89256708 -134.88853713 0.83174627 -120 -7 C-83.20112838 -25.27314613 -35.0456038 -19.28487136 0 0 Z " fill="#001E62" transform="translate(2223,1915)"/>
<path d="M0 0 C15.94431308 13.58193654 24.32521132 31.64035627 26.68359375 52.37890625 C28.45312005 75.6736292 21.80793342 96.04174187 6.66796875 113.734375 C-7.44453202 128.91838045 -28.13278973 137.40750692 -48.67456055 138.50488281 C-76.13687674 139.32752874 -100.45061777 133.43804237 -121.00390625 114.19140625 C-135.2279007 99.38216694 -141.20349957 79.92664676 -141.69140625 59.81640625 C-141.2184745 40.42620444 -135.20607013 22.14007552 -122.31640625 7.37890625 C-121.65640625 7.37890625 -120.99640625 7.37890625 -120.31640625 7.37890625 C-120.07148437 6.79625 -119.8265625 6.21359375 -119.57421875 5.61328125 C-113.2567983 -5.60896873 -94.88068589 -12.34005749 -83.13671875 -15.87890625 C-55.07302483 -23.26408886 -22.87501267 -18.53493193 0 0 Z M-86.71484375 31.359375 C-93.2907895 39.6514822 -95.70039745 49.30031642 -95.62890625 59.69140625 C-95.6239917 60.53227783 -95.61907715 61.37314941 -95.61401367 62.23950195 C-95.40471008 73.32829879 -92.32047968 81.87442547 -84.81640625 90.12890625 C-74.9323578 99.02454985 -66.40738794 101.94627541 -53.1875 101.6171875 C-43.45702719 101.01823811 -36.56365078 96.83962812 -29.31640625 90.37890625 C-19.3599377 78.60482681 -18.16647562 65.22147139 -19.31640625 50.37890625 C-21.30134007 39.9324831 -26.33997133 30.74843034 -35.16796875 24.66015625 C-52.56029969 14.28800253 -72.65185589 16.6221343 -86.71484375 31.359375 Z " fill="#001E62" transform="translate(2036.31640625,1963.62109375)"/>
<path d="M0 0 C15.8232326 12.6763152 27.58828191 29.43949429 30 50 C31.33591379 74.59680711 27.96056359 96.58334854 11.26806641 115.61865234 C-2.64561664 130.67085702 -24.0388997 140.09100503 -44.46508789 141.12475586 C-70.2410691 141.86676016 -95.39799601 137.178991 -115 119 C-132.89964768 99.88887024 -137.80906726 79.23805306 -137.140625 53.71191406 C-136.85659012 48.23438033 -135.69765239 43.21843583 -134 38 C-133.74476563 37.09894531 -133.48953125 36.19789062 -133.2265625 35.26953125 C-127.725768 17.78306067 -114.81494268 3.79098769 -99 -5 C-98.07703125 -5.53367187 -97.1540625 -6.06734375 -96.203125 -6.6171875 C-66.85610988 -22.55975518 -26.84075675 -19.18182616 0 0 Z M-81.04296875 32.07421875 C-88.91394229 41.69056808 -92.62458978 53.11275359 -92.24609375 65.55859375 C-91.08623187 77.06516003 -87.72990637 86.94667479 -79.0625 94.875 C-68.95782618 103.03942276 -58.88505856 105.08589394 -46 104 C-36.39895942 101.73130101 -28.14295122 96.76480517 -22 89 C-14.29974513 75.6056093 -13.46579477 62.24221434 -16.96484375 47.3671875 C-19.94546586 37.67172991 -25.86165701 30.27775597 -34.81640625 25.49609375 C-50.3835541 18.22036952 -68.41756551 19.25569271 -81.04296875 32.07421875 Z " fill="#001E62" transform="translate(2526,1961)"/>
<path d="M0 0 C11.49385095 9.45196339 18.86470142 22.80214154 23 37 C23.21140625 37.67289063 23.4228125 38.34578125 23.640625 39.0390625 C25.05490824 44.2719105 25.35158899 49.61167955 25.6875 55 C25.76037231 56.12160522 25.76037231 56.12160522 25.8347168 57.26586914 C26.11622658 62.75861119 25.62248844 67.39760404 25 73 C-12.95 73 -50.9 73 -90 73 C-82.08198079 88.83603842 -77.73248482 94.8472364 -61.82421875 100.81640625 C-49.58536752 104.21476688 -34.05509353 103.03729869 -22.7734375 97.3828125 C-17.85268618 94.59318949 -13.36398098 91.60365036 -9 88 C-7.90234298 89.09765702 -6.8054267 90.19605927 -5.7109375 91.296875 C-4.37188284 92.62981525 -3.02031941 93.95019188 -1.6640625 95.265625 C-0.84679688 96.06484375 -0.02953125 96.8640625 0.8125 97.6875 C1.60269531 98.45449219 2.39289062 99.22148437 3.20703125 100.01171875 C5 102 5 102 5 104 C5.66 104 6.32 104 7 104 C8.7265625 105.609375 8.7265625 105.609375 10.625 107.75 C11.25664062 108.44609375 11.88828125 109.1421875 12.5390625 109.859375 C14 112 14 112 14 116 C2.75460709 130.00909117 -16.43651617 136.83152758 -33.75439453 138.81469727 C-59.95211912 140.9764795 -86.62416814 137.3788999 -107.85546875 120.765625 C-110.33493861 118.58999336 -112.68668304 116.35076274 -115 114 C-115.63421875 113.36449219 -116.2684375 112.72898437 -116.921875 112.07421875 C-132.62739583 95.29154937 -135.88881634 73.96387236 -135.18359375 51.86572266 C-134.76131292 45.27432318 -133.12132243 39.24572965 -131 33 C-130.45666016 31.38738281 -130.45666016 31.38738281 -129.90234375 29.7421875 C-122.64031929 10.49166843 -107.46020631 -2.79115201 -89.27734375 -11.26953125 C-59.55725463 -23.84522665 -25.36252878 -19.86837897 0 0 Z M-82.8125 28.75 C-87.22149451 34.08180732 -90 40.05229692 -90 47 C-65.91 47 -41.82 47 -17 47 C-19.4526462 35.96309211 -23.23121461 27.28949196 -33 21 C-50.52467736 12.92683402 -69.08679661 14.35545937 -82.8125 28.75 Z " fill="#001E62" transform="translate(2805,1963)"/>
<path d="M0 0 C6.95074701 5.78258142 12.51625526 12.84564713 16.49121094 20.96118164 C16.49121094 21.95118164 16.49121094 22.94118164 16.49121094 23.96118164 C11.99042728 26.36689746 7.48803763 28.76956984 2.98413086 31.16943359 C1.45210943 31.98630619 -0.07946943 32.80400938 -1.6105957 33.62255859 C-3.8111785 34.79881825 -6.0133344 35.97208395 -8.21582031 37.14477539 C-8.90029739 37.51146835 -9.58477448 37.87816132 -10.28999329 38.25596619 C-13.00679811 39.699459 -15.5839523 40.98623605 -18.50878906 41.96118164 C-19.68128259 40.50752895 -20.84662722 39.04810745 -22.00878906 37.58618164 C-22.65847656 36.77407227 -23.30816406 35.96196289 -23.97753906 35.12524414 C-25.50878906 32.96118164 -25.50878906 32.96118164 -25.50878906 30.96118164 C-26.05664062 30.6943457 -26.60449219 30.42750977 -27.16894531 30.15258789 C-30.76370415 28.3222015 -34.24894582 26.29536229 -37.75488281 24.30102539 C-45.4615046 20.55156259 -55.54825947 20.89446482 -63.69628906 23.08618164 C-73.11315718 26.38820033 -80.3926693 31.26649939 -85.50878906 39.96118164 C-91.59056371 53.1445407 -92.34665836 67.25388531 -87.50878906 80.96118164 C-82.9753885 91.13227265 -75.68586259 96.98900147 -65.55175781 101.23461914 C-56.07625663 104.60449145 -44.64931816 104.17757068 -35.50878906 99.96118164 C-27.76388551 95.75580415 -23.05346455 90.44033302 -18.50878906 82.96118164 C-6.74046155 88.77230061 4.89843141 94.80774035 16.49121094 100.96118164 C15.63676354 106.69100538 12.85385477 110.36636335 9.49121094 114.96118164 C9.059375 115.56188477 8.62753906 116.16258789 8.18261719 116.78149414 C1.11964726 125.79359226 -8.94652871 131.91231517 -19.50878906 135.96118164 C-20.25644531 136.25637695 -21.00410156 136.55157227 -21.77441406 136.85571289 C-44.57164171 145.17916111 -71.78587943 142.3385133 -93.71923828 132.79370117 C-110.63630428 124.9236882 -125.49075269 109.59461927 -132.02441406 92.06665039 C-135.50297607 82.11941749 -136.70908203 73.32436648 -136.75878906 62.83618164 C-136.77941406 61.77141602 -136.80003906 60.70665039 -136.82128906 59.60961914 C-136.91671272 39.95234616 -128.60997364 21.54973529 -115.10644531 7.45336914 C-85.57959527 -20.90281284 -32.70514431 -25.79953031 0 0 Z " fill="#001E62" transform="translate(2371.5087890625,1961.038818359375)"/>
<path d="M0 0 C0 13.53 0 27.06 0 41 C-7.92 41.495 -7.92 41.495 -16 42 C-26.42540482 43.94198717 -35.9937308 47.3275251 -42.75390625 55.9453125 C-47.81322454 64.2876367 -49.12938093 73.43915227 -49.20532227 83.02490234 C-49.21522186 83.80606415 -49.22512146 84.58722595 -49.23532104 85.39205933 C-49.26673757 87.95665527 -49.2916144 90.52126969 -49.31640625 93.0859375 C-49.33699295 94.87098656 -49.35798986 96.65603093 -49.37937927 98.44107056 C-49.43442279 103.12632437 -49.48390981 107.81162088 -49.53222656 112.49694824 C-49.59143186 118.12551008 -49.65756182 123.75399433 -49.72252655 129.38249207 C-49.82031294 137.92161376 -49.9093215 146.46078654 -50 155 C-64.85 155 -79.7 155 -95 155 C-95 104.51 -95 54.02 -95 2 C-80.81 2 -66.62 2 -52 2 C-51.505 10.91 -51.505 10.91 -51 20 C-50.030625 18.783125 -49.06125 17.56625 -48.0625 16.3125 C-44.20351174 11.91883265 -40.27572988 9.42421968 -35 7 C-34.25105469 6.64164063 -33.50210938 6.28328125 -32.73046875 5.9140625 C-22.14283387 1.24356353 -11.49552423 0 0 0 Z " fill="#001E62" transform="translate(2667,1945)"/>
<path d="M0 0 C3.875 1.75 3.875 1.75 5 4 C5.1021473 6.17457308 5.13843564 8.35233672 5.14526367 10.52929688 C5.15030159 11.53441063 5.15030159 11.53441063 5.15544128 12.55982971 C5.16495689 14.77948855 5.16689456 16.99907203 5.16796875 19.21875 C5.17118044 20.75809765 5.17454444 22.29744499 5.17805481 23.83679199 C5.18404727 27.06486723 5.18589454 30.29291568 5.18530273 33.52099609 C5.185201 37.66403891 5.19886451 41.80691078 5.21607494 45.94991302 C5.22717397 49.12913813 5.22922261 52.30832159 5.22869301 55.48756409 C5.22987586 57.01543264 5.23431466 58.54330218 5.24202538 60.07115173 C5.25178506 62.20445874 5.24896366 64.33739053 5.24291992 66.47070312 C5.24434494 67.68600708 5.24576996 68.90131104 5.24723816 70.15344238 C5 73 5 73 3 75 C-1.81989758 75.37076135 -5.51023509 74.75210338 -10 73 C-7 71 -7 71 -4 70 C-3.67 70.66 -3.34 71.32 -3 72 C0.02934491 72.65772428 0.02934491 72.65772428 3 73 C2.91561525 64.07245053 2.82073925 55.14509216 2.71247292 46.21780014 C2.66252988 42.07248022 2.6161997 37.92718554 2.578125 33.78173828 C2.54124695 29.78105013 2.49488023 25.78057412 2.44193649 21.78006744 C2.42340592 20.25389579 2.408293 18.72767869 2.39665604 17.2014389 C2.37977048 15.06343366 2.35073071 12.92591285 2.31884766 10.78808594 C2.30552399 9.5711908 2.29220032 8.35429565 2.2784729 7.1005249 C2.01479646 4.1647442 1.53900524 2.4743888 0 0 Z " fill="#15907C" transform="translate(1355,2143)"/>
<path d="M0 0 C0.33 0 0.66 0 1 0 C1.33 2.31 1.66 4.62 2 7 C2.33 7 2.66 7 3 7 C3.13603427 20.2680652 2.74372556 33.44144836 2 46.6875 C1.90318078 48.47979265 1.80682482 50.27211038 1.7109375 52.06445312 C1.47926347 56.37660816 1.24144294 60.68838137 1 65 C0.67 65 0.34 65 0 65 C0 43.55 0 22.1 0 0 Z " fill="#17876A" transform="translate(1157,1873)"/>
<path d="M0 0 C1 2 1 2 0.875 4 C0 6 0 6 -2.25 7.1875 C-4.82506595 7.94831494 -7.35444307 8.54647595 -10 9 C-10.08378906 9.61359375 -10.16757813 10.2271875 -10.25390625 10.859375 C-11 13 -11 13 -12.77734375 14.265625 C-13.49019531 14.59046875 -14.20304687 14.9153125 -14.9375 15.25 C-15.64777344 15.58515625 -16.35804687 15.9203125 -17.08984375 16.265625 C-19 17 -19 17 -21 17 C-21 17.66 -21 18.32 -21 19 C-21.66 19 -22.32 19 -23 19 C-23 20.32 -23 21.64 -23 23 C-23.99 23 -24.98 23 -26 23 C-26.33 22.34 -26.66 21.68 -27 21 C-27.66 21 -28.32 21 -29 21 C-29 20.34 -29 19.68 -29 19 C-28.030625 18.71125 -27.06125 18.4225 -26.0625 18.125 C-22.89335797 17.35785318 -22.89335797 17.35785318 -22 15 C-14.99673736 10.63947798 -14.99673736 10.63947798 -11 10 C-11 9.34 -11 8.68 -11 8 C-9.5390625 6.7109375 -9.5390625 6.7109375 -7.625 5.375 C-6.99851562 4.92898437 -6.37203125 4.48296875 -5.7265625 4.0234375 C-4 3 -4 3 -2 3 C-2 2.34 -2 1.68 -2 1 C-1.34 0.67 -0.68 0.34 0 0 Z " fill="#000B42" transform="translate(1415,2112)"/>
<path d="M0 0 C9.24 0 18.48 0 28 0 C28 0.66 28 1.32 28 2 C25.65667408 3.17166296 24.25011541 3.12908313 21.640625 3.1328125 C20.77179688 3.13410156 19.90296875 3.13539062 19.0078125 3.13671875 C18.09773438 3.13285156 17.18765625 3.12898438 16.25 3.125 C15.35539062 3.12886719 14.46078125 3.13273437 13.5390625 3.13671875 C8.9126273 3.1298951 4.55071304 2.94932093 0 2 C0 1.34 0 0.68 0 0 Z " fill="#000757" transform="translate(1565,1945)"/>
<path d="M0 0 C0 3.13751221 -0.35179805 4.39757586 -2 7 C-2.99 7.33 -3.98 7.66 -5 8 C-6.58558381 9.63502936 -6.58558381 9.63502936 -8.0625 11.5625 C-9.59765625 13.50390625 -9.59765625 13.50390625 -11 15 C-11.66 15 -12.32 15 -13 15 C-12.42613722 10.98296051 -11.54998712 8.1874839 -9 5 C-6.10125719 3.12070848 -3.09727253 1.52590995 0 0 Z " fill="#0F9872" transform="translate(1171,1803)"/>
<path d="M0 0 C-0.99 0.33 -1.98 0.66 -3 1 C-3 1.66 -3 2.32 -3 3 C-3.99 3 -4.98 3 -6 3 C-6.33 3.99 -6.66 4.98 -7 6 C-9.14453125 7.203125 -9.14453125 7.203125 -11.8125 8.25 C-12.68519531 8.60578125 -13.55789063 8.9615625 -14.45703125 9.328125 C-17.13641236 10.03604136 -18.43212123 9.9337741 -21 9 C-18 7 -18 7 -15 7 C-15 6.34 -15 5.68 -15 5 C-12.35261084 3.5393715 -11.10551666 3 -8 3 C-8 2.34 -8 1.68 -8 1 C-2.25 -1.125 -2.25 -1.125 0 0 Z " fill="#18A576" transform="translate(1194,1793)"/>
<path d="M0 0 C2.89932357 2.39509338 3.50168276 4.31245243 4 8 C4.66 8 5.32 8 6 8 C6.33 9.65 6.66 11.3 7 13 C7.66 13 8.32 13 9 13 C9.33 14.32 9.66 15.64 10 17 C9.34 17 8.68 17 8 17 C8 17.66 8 18.32 8 19 C7.01 19 6.02 19 5 19 C4.65820312 15.97265625 4.65820312 15.97265625 4.31640625 12.9453125 C4.08707039 10.92595684 4.08707039 10.92595684 3 9 C2.01 8.67 1.02 8.34 0 8 C0 5.36 0 2.72 0 0 Z " fill="#00093D" transform="translate(1541,1825)"/>
<path d="M0 0 C0.99 0.33 1.98 0.66 3 1 C2.01 1.33 1.02 1.66 0 2 C-0.33 2.99 -0.66 3.98 -1 5 C-3.375 6.75 -3.375 6.75 -6 8 C-6.99 7.67 -7.98 7.34 -9 7 C-9 5.35 -9 3.7 -9 2 C-6.94921875 1.77213542 -4.8984375 1.54427083 -2.84765625 1.31640625 C-0.98859771 1.18113386 -0.98859771 1.18113386 0 0 Z " fill="#010C54" transform="translate(1446,2178)"/>
<path d="M0 0 C1.24546405 2.49092811 0.7767578 3.41080733 0 6 C-0.66 6 -1.32 6 -2 6 C-2.33 8.64 -2.66 11.28 -3 14 C-3.99 14 -4.98 14 -6 14 C-5.77211278 12.03897046 -5.51694943 10.08109495 -5.25 8.125 C-5.11078125 7.03445312 -4.9715625 5.94390625 -4.828125 4.8203125 C-4 2 -4 2 -1.921875 0.6171875 C-1.28765625 0.41351562 -0.6534375 0.20984375 0 0 Z " fill="#000A3E" transform="translate(1550,2044)"/>
<path d="M0 0 C1.43278609 2.86557219 0.53764889 4.98141348 -0.26953125 7.9609375 C-1.32244672 10.90009192 -2.76989798 12.83548921 -5 15 C-7.25 15.8125 -7.25 15.8125 -9 16 C-8.67 15.01 -8.34 14.02 -8 13 C-7.34 13 -6.68 13 -6 13 C-5.67 11.68 -5.34 10.36 -5 9 C-4.34 9 -3.68 9 -3 9 C-2.87625 8.071875 -2.7525 7.14375 -2.625 6.1875 C-2 3 -2 3 0 0 Z " fill="#000E48" transform="translate(1465,2054)"/>
<path d="M0 0 C0.99 0.33 1.98 0.66 3 1 C2.09674384 2.32176485 1.17682097 3.63215066 0.25 4.9375 C-0.26046875 5.66839844 -0.7709375 6.39929687 -1.296875 7.15234375 C-3.19177915 9.20805399 -4.27425729 9.62669176 -7 10 C-7.3125 7.75 -7.3125 7.75 -7 5 C-4.77639103 2.89342308 -2.73477132 1.36738566 0 0 Z " fill="#030F49" transform="translate(1429,2101)"/>
<path d="M0 0 C0.66 0 1.32 0 2 0 C2.625 2.8125 2.625 2.8125 3 6 C2.01 7.485 2.01 7.485 1 9 C0.01 9 -0.98 9 -2 9 C-2 8.01 -2 7.02 -2 6 C-2.66 6 -3.32 6 -4 6 C-4 5.34 -4 4.68 -4 4 C-3.34 4 -2.68 4 -2 4 C-1.34 2.68 -0.68 1.36 0 0 Z " fill="#000B54" transform="translate(1457,1880)"/>
<path d="M0 0 C0.66 0 1.32 0 2 0 C3.68732277 1.98260426 5.35366057 3.9832342 7 6 C7.66 6.33 8.32 6.66 9 7 C9 7.66 9 8.32 9 9 C10.32 9.33 11.64 9.66 13 10 C13 10.66 13 11.32 13 12 C8.25 11.25 8.25 11.25 6 9 C5.34 9 4.68 9 4 9 C4 7.68 4 6.36 4 5 C3.01 4.67 2.02 4.34 1 4 C0.3125 1.9375 0.3125 1.9375 0 0 Z " fill="#12A376" transform="translate(1282,2092)"/>
<path d="M0 0 C4 4 4 4 4.27734375 6.5078125 C4.16519531 7.37148437 4.05304688 8.23515625 3.9375 9.125 C3.84339844 9.99382812 3.74929688 10.86265625 3.65234375 11.7578125 C3 14 3 14 0 16 C0 10.72 0 5.44 0 0 Z " fill="#0E9575" transform="translate(1157,1940)"/>
<path d="M0 0 C0.33 0.66 0.66 1.32 1 2 C3.02463255 2.65213292 3.02463255 2.65213292 5 3 C5 4.98 5 6.96 5 9 C0.58110387 7.64978174 -1.34345343 5.73884332 -4 2 C-2.68 1.34 -1.36 0.68 0 0 Z " fill="#0BB282" transform="translate(1215,2123)"/>
<path d="M0 0 C0 0.66 0 1.32 0 2 C-3.50776784 3.60355101 -6.14354879 4.22036864 -10 4 C-10 4.66 -10 5.32 -10 6 C-11.32 6 -12.64 6 -14 6 C-13.67 4.68 -13.34 3.36 -13 2 C-11.39658445 1.66307215 -9.79223445 1.33058907 -8.1875 1 C-7.29417969 0.814375 -6.40085937 0.62875 -5.48046875 0.4375 C-3 0 -3 0 0 0 Z " fill="#020F3E" transform="translate(1394,2208)"/>
<path d="M0 0 C0.66 0 1.32 0 2 0 C1.34 1.65 0.68 3.3 0 5 C-0.66 5 -1.32 5 -2 5 C-2.12375 5.78375 -2.2475 6.5675 -2.375 7.375 C-3 10 -3 10 -5 12 C-5.99 12 -6.98 12 -8 12 C-7.67 11.01 -7.34 10.02 -7 9 C-6.34 9 -5.68 9 -5 9 C-4.9175 8.443125 -4.835 7.88625 -4.75 7.3125 C-3.76104459 4.26322081 -2.15242534 2.34810037 0 0 Z " fill="#00073F" transform="translate(1432,1910)"/>
<path d="M0 0 C0.66 0 1.32 0 2 0 C2 2.64 2 5.28 2 8 C0.68 8.33 -0.64 8.66 -2 9 C-2 8.34 -2 7.68 -2 7 C-2.66 7 -3.32 7 -4 7 C-3.67 6.01 -3.34 5.02 -3 4 C-2.34 4 -1.68 4 -1 4 C-0.67 2.68 -0.34 1.36 0 0 Z " fill="#000652" transform="translate(1502,1824)"/>
<path d="M0 0 C0.66 0.66 1.32 1.32 2 2 C3.98821313 2.39764263 5.98944339 2.73775349 8 3 C8.33 2.01 8.66 1.02 9 0 C8.67 1.65 8.34 3.3 8 5 C3.17639811 5.19294408 -0.49646738 4.75747614 -5 3 C-2 1 -2 1 0 0 Z " fill="#0E9D74" transform="translate(1350,2213)"/>
<path d="M0 0 C9.9127789 1.8356998 9.9127789 1.8356998 14 5 C14 5.66 14 6.32 14 7 C9.545 6.01 9.545 6.01 5 5 C5 4.34 5 3.68 5 3 C2.03 2.505 2.03 2.505 -1 2 C-0.67 1.34 -0.34 0.68 0 0 Z " fill="#14956B" transform="translate(1307,2198)"/>
<path d="M0 0 C2.109375 0.421875 2.109375 0.421875 4 1 C3.09515208 2.15518918 2.1755794 3.29885406 1.25 4.4375 C0.73953125 5.07558594 0.2290625 5.71367188 -0.296875 6.37109375 C-2.19667629 8.18810554 -3.43586908 8.60423197 -6 9 C-5.67 8.01 -5.34 7.02 -5 6 C-4.34 6 -3.68 6 -3 6 C-3 5.01 -3 4.02 -3 3 C-1.75 1.25 -1.75 1.25 0 0 Z " fill="#000A39" transform="translate(1441,1899)"/>
<path d="M0 0 C0.66 0 1.32 0 2 0 C2.66 2.31 3.32 4.62 4 7 C4.66 7 5.32 7 6 7 C6.33 8.32 6.66 9.64 7 11 C6.01 11.495 6.01 11.495 5 12 C4.67 11.34 4.34 10.68 4 10 C2.68 9.67 1.36 9.34 0 9 C0 6.03 0 3.06 0 0 Z " fill="#010842" transform="translate(1576,1891)"/>
<path d="M0 0 C2.97 0.495 2.97 0.495 6 1 C6.33 3.97 6.66 6.94 7 10 C6.34 10 5.68 10 5 10 C4.34 8.02 3.68 6.04 3 4 C2.34 4 1.68 4 1 4 C0.67 2.68 0.34 1.36 0 0 Z " fill="#10A07A" transform="translate(1196,2103)"/>
<path d="M0 0 C0.99 0.33 1.98 0.66 3 1 C1.94901234 3.86632997 1.33137046 4.83006643 -1.4375 6.25 C-4 7 -4 7 -7 7 C-5.39696485 3.79392969 -2.84057344 2.10202434 0 0 Z " fill="#000951" transform="translate(1422,2191)"/>
<path d="M0 0 C2 2 2 2 2.125 4.625 C2.08375 5.40875 2.0425 6.1925 2 7 C-0.49064888 7.68707555 -2.37886292 8 -5 8 C-3.62845496 5.04590299 -2.01136276 2.55991624 0 0 Z " fill="#000851" transform="translate(1446,2082)"/>
<path d="M0 0 C2.375 0.25 2.375 0.25 5 1 C6.3125 3.0625 6.3125 3.0625 7 5 C1.25 5.125 1.25 5.125 -1 4 C-0.67 2.68 -0.34 1.36 0 0 Z " fill="#00094F" transform="translate(1430,1933)"/>
<path d="M0 0 C1.67542976 0.28604898 3.34385343 0.61781233 5 1 C4.34 2.32 3.68 3.64 3 5 C2.34 5 1.68 5 1 5 C0.67 6.32 0.34 7.64 0 9 C-0.66 8.67 -1.32 8.34 -2 8 C-1.67 7.34 -1.34 6.68 -1 6 C-1 5.154375 -1 4.30875 -1 3.4375 C-1 1 -1 1 0 0 Z " fill="#000F4B" transform="translate(1512,2112)"/>
<path d="M0 0 C0.99 0 1.98 0 3 0 C3 0.99 3 1.98 3 3 C3.66 3 4.32 3 5 3 C5.33 4.65 5.66 6.3 6 8 C5.34 8 4.68 8 4 8 C4 7.34 4 6.68 4 6 C2.68 6 1.36 6 0 6 C0 4.02 0 2.04 0 0 Z " fill="#0E9F6D" transform="translate(1247,2042)"/>
<path d="M0 0 C0.66 0.33 1.32 0.66 2 1 C2 3.31 2 5.62 2 8 C1.01 8 0.02 8 -1 8 C-1 7.01 -1 6.02 -1 5 C-1.66 4.67 -2.32 4.34 -3 4 C-3 3.01 -3 2.02 -3 1 C-2.01 0.67 -1.02 0.34 0 0 Z " fill="#000345" transform="translate(1597,1931)"/>
<path d="M0 0 C0.33 0 0.66 0 1 0 C1.66 5.28 2.32 10.56 3 16 C2.01 16.66 1.02 17.32 0 18 C0 12.06 0 6.12 0 0 Z " fill="#09B285" transform="translate(1158,1917)"/>
<path d="M0 0 C0 3.10551666 -0.5393715 4.35261084 -2 7 C-3.65 7 -5.3 7 -7 7 C-5.54744301 3.17053157 -3.57104439 1.87949705 0 0 Z " fill="#0CA77D" transform="translate(1171,1803)"/>
<path d="M0 0 C0 0.66 0 1.32 0 2 C-3.96 2 -7.92 2 -12 2 C-12 1.34 -12 0.68 -12 0 C-7.91556885 -1.53166168 -4.20544343 -0.63081652 0 0 Z " fill="#000059" transform="translate(1530,1808)"/>
<path d="M0 0 C3.375 -0.125 3.375 -0.125 7 0 C7.66 0.66 8.32 1.32 9 2 C7.68 2 6.36 2 5 2 C5 2.66 5 3.32 5 4 C3.35 4 1.7 4 0 4 C0 2.68 0 1.36 0 0 Z " fill="#00024E" transform="translate(1370,2213)"/>
<path d="M0 0 C0.66 0 1.32 0 2 0 C1.52794881 4.24846075 -0.88877522 6.26819288 -4 9 C-4.66 9 -5.32 9 -6 9 C-6 8.34 -6 7.68 -6 7 C-5.34 7 -4.68 7 -4 7 C-3.896875 6.360625 -3.79375 5.72125 -3.6875 5.0625 C-3.460625 4.381875 -3.23375 3.70125 -3 3 C-2.01 2.67 -1.02 2.34 0 2 C0 1.34 0 0.68 0 0 Z " fill="#000A3D" transform="translate(1487,1843)"/>
<path d="M0 0 C0.66 0.99 1.32 1.98 2 3 C-3.14285714 8.57142857 -3.14285714 8.57142857 -7 9 C-5.71480435 6.13302508 -4.42870746 4.02392288 -2 2 C-1.34 2 -0.68 2 0 2 C0 1.34 0 0.68 0 0 Z " fill="#000F45" transform="translate(1497,1831)"/>
<path d="M0 0 C0.66 0 1.32 0 2 0 C2.33 1.65 2.66 3.3 3 5 C3.66 5 4.32 5 5 5 C5.33 6.65 5.66 8.3 6 10 C5.01 9.67 4.02 9.34 3 9 C3 8.01 3 7.02 3 6 C2.34 6 1.68 6 1 6 C0.67 4.02 0.34 2.04 0 0 Z " fill="#000A41" transform="translate(1566,1873)"/>
<path d="M0 0 C0.66 0.66 1.32 1.32 2 2 C0.68 2.99 -0.64 3.98 -2 5 C-1.67 5.66 -1.34 6.32 -1 7 C-1.99 7 -2.98 7 -4 7 C-4.33 7.99 -4.66 8.98 -5 10 C-5.66 10 -6.32 10 -7 10 C-5.6062718 5.56541027 -3.39417765 3.12621626 0 0 Z " fill="#05114D" transform="translate(1511,1814)"/>
<path d="M0 0 C-1.13499394 3.29148243 -1.99283376 3.9959869 -5.125 5.75 C-6.548125 6.36875 -6.548125 6.36875 -8 7 C-8.66 6.34 -9.32 5.68 -10 5 C-8.71186658 4.16121545 -7.41936744 3.32913217 -6.125 2.5 C-5.40570312 2.0359375 -4.68640625 1.571875 -3.9453125 1.09375 C-2 0 -2 0 0 0 Z " fill="#00093F" transform="translate(1378,2137)"/>
<path d="M0 0 C0.99 0 1.98 0 3 0 C2.67 2.97 2.34 5.94 2 9 C1.34 9 0.68 9 0 9 C0 6.03 0 3.06 0 0 Z " fill="#000F69" transform="translate(1549,2034)"/>
<path d="M0 0 C0.66 0.33 1.32 0.66 2 1 C1.67 1.66 1.34 2.32 1 3 C1 4.32 1 5.64 1 7 C-0.32 7.33 -1.64 7.66 -3 8 C-3.33 6.68 -3.66 5.36 -4 4 C-3.34 4 -2.68 4 -2 4 C-1.34 2.68 -0.68 1.36 0 0 Z " fill="#000859" transform="translate(1436,2094)"/>
<path d="M0 0 C0.66 0 1.32 0 2 0 C2.33 2.64 2.66 5.28 3 8 C3.66 8 4.32 8 5 8 C5 8.99 5 9.98 5 11 C4.01 11 3.02 11 2 11 C1.34 7.37 0.68 3.74 0 0 Z " fill="#119170" transform="translate(1243,2028)"/>
<path d="M0 0 C0.33 0.99 0.66 1.98 1 3 C1.66 3 2.32 3 3 3 C3.33 4.98 3.66 6.96 4 9 C4.66 9 5.32 9 6 9 C6 9.66 6 10.32 6 11 C3.17621961 9.96461386 2.1756855 9.33380245 0.75 6.625 C0 4 0 4 0 0 Z " fill="#138D71" transform="translate(1253,2050)"/>
<path d="M0 0 C1.65 0 3.3 0 5 0 C5 0.99 5 1.98 5 3 C4.34 3 3.68 3 3 3 C3 3.66 3 4.32 3 5 C2.01 4.67 1.02 4.34 0 4 C0 2.68 0 1.36 0 0 Z " fill="#000362" transform="translate(1482,2146)"/>
<path d="M0 0 C0.33 0.66 0.66 1.32 1 2 C1.66 2 2.32 2 3 2 C3.66 3.98 4.32 5.96 5 8 C4.34 8 3.68 8 3 8 C2.34 7.01 1.68 6.02 1 5 C0.34 5 -0.32 5 -1 5 C-0.67 3.35 -0.34 1.7 0 0 Z " fill="#099F71" transform="translate(1263,2068)"/>
<path d="M0 0 C0 1.65 0 3.3 0 5 C-1.65 4.67 -3.3 4.34 -5 4 C-5 3.01 -5 2.02 -5 1 C-2 0 -2 0 0 0 Z " fill="#12C387" transform="translate(1229,1783)"/>
<path d="M0 0 C-0.33 0.99 -0.66 1.98 -1 3 C-5.455 3.495 -5.455 3.495 -10 4 C-9 2 -9 2 -6.125 0.875 C-3 0 -3 0 0 0 Z " fill="#119E68" transform="translate(1214,1782)"/>
<path d="M0 0 C-3.06117568 2.62386487 -3.73173127 3 -8 3 C-8 3.66 -8 4.32 -8 5 C-8.66 5 -9.32 5 -10 5 C-9.1875 3.0625 -9.1875 3.0625 -8 1 C-5.07175348 0.02391783 -3.04386724 -0.08226668 0 0 Z " fill="#00093B" transform="translate(1436,2188)"/>
<path d="M0 0 C1.32 0 2.64 0 4 0 C4 0.66 4 1.32 4 2 C4.639375 2.268125 5.27875 2.53625 5.9375 2.8125 C8 4 8 4 9 7 C8.34 7 7.68 7 7 7 C6.67 6.34 6.34 5.68 6 5 C3.98330173 3.86649466 3.98330173 3.86649466 2 3 C2 2.34 2 1.68 2 1 C1.34 0.67 0.68 0.34 0 0 Z " fill="#0E986B" transform="translate(1253,2165)"/>
<path d="M0 0 C1.98 0.99 1.98 0.99 4 2 C4 5.96 4 9.92 4 14 C3.67 14 3.34 14 3 14 C2.92652344 12.98679687 2.92652344 12.98679687 2.8515625 11.953125 C2.77679687 11.06109375 2.70203125 10.1690625 2.625 9.25 C2.55539062 8.36828125 2.48578125 7.4865625 2.4140625 6.578125 C2.00149945 4.00933618 1.28839043 2.24158985 0 0 Z " fill="#179D7D" transform="translate(1355,2143)"/>
<path d="M0 0 C5.53846154 0.49230769 5.53846154 0.49230769 7.875 3.0625 C8.431875 4.0215625 8.431875 4.0215625 9 5 C5.30581799 5 3.22163822 3.71820705 0 2 C0 1.34 0 0.68 0 0 Z " fill="#11A774" transform="translate(1313,2119)"/>
<path d="M0 0 C0.99 0.33 1.98 0.66 3 1 C2.67 3.64 2.34 6.28 2 9 C1.34 8.67 0.68 8.34 0 8 C0 5.36 0 2.72 0 0 Z " fill="#079269" transform="translate(1159,2000)"/>
<path d="M0 0 C0.66 0 1.32 0 2 0 C2.5625 1.9375 2.5625 1.9375 3 4 C2.67 4.33 2.34 4.66 2 5 C1.76807135 6.51469448 1.58784762 8.03754562 1.4375 9.5625 C1.35371094 10.38878906 1.26992187 11.21507812 1.18359375 12.06640625 C1.12300781 12.70449219 1.06242187 13.34257813 1 14 C0.67 14 0.34 14 0 14 C0 9.38 0 4.76 0 0 Z " fill="#000B50" transform="translate(1485,1975)"/>
<path d="M0 0 C0.33 0.66 0.66 1.32 1 2 C1.99 2 2.98 2 4 2 C4 2.66 4 3.32 4 4 C2.02 4.33 0.04 4.66 -2 5 C-1.125 1.125 -1.125 1.125 0 0 Z " fill="#00094A" transform="translate(1397,2203)"/>
<path d="M0 0 C1.32 0 2.64 0 4 0 C3.67 1.65 3.34 3.3 3 5 C1.68 4.34 0.36 3.68 -1 3 C-0.67 2.01 -0.34 1.02 0 0 Z " fill="#08AE7F" transform="translate(1277,2179)"/>
<path d="M0 0 C1.65 0 3.3 0 5 0 C5 0.99 5 1.98 5 3 C4.34 3 3.68 3 3 3 C2.67 3.66 2.34 4.32 2 5 C1.34 4.67 0.68 4.34 0 4 C0 2.68 0 1.36 0 0 Z " fill="#000465" transform="translate(1493,2135)"/>
<path d="M0 0 C0.66 0 1.32 0 2 0 C3.20272819 2.40545638 3.10071472 3.94996953 3.0625 6.625 C3.05347656 7.44226562 3.04445313 8.25953125 3.03515625 9.1015625 C3.02355469 9.72804688 3.01195312 10.35453125 3 11 C2.67 11 2.34 11 2 11 C2 9.02 2 7.04 2 5 C1.34 5 0.68 5 0 5 C0 3.35 0 1.7 0 0 Z " fill="#0F9A79" transform="translate(1162,2020)"/>
<path d="M0 0 C0.99 0.33 1.98 0.66 3 1 C3.33 2.65 3.66 4.3 4 6 C2.68 6 1.36 6 0 6 C0 4.02 0 2.04 0 0 Z " fill="#000452" transform="translate(1583,1905)"/>
<path d="M0 0 C0.66 0 1.32 0 2 0 C2 0.99 2 1.98 2 3 C-1 5 -1 5 -3.6875 4.625 C-4.450625 4.41875 -5.21375 4.2125 -6 4 C-3 2 -3 2 0 2 C0 1.34 0 0.68 0 0 Z " fill="#0C9771" transform="translate(1200,1787)"/>
<path d="M0 0 C1.65 0 3.3 0 5 0 C5 1.98 5 3.96 5 6 C4.34 6 3.68 6 3 6 C2.01 4.02 1.02 2.04 0 0 Z " fill="#07A470" transform="translate(1187,2090)"/>
<path d="M0 0 C0.99 0 1.98 0 3 0 C2.67 2.31 2.34 4.62 2 7 C1.34 7 0.68 7 0 7 C0 4.69 0 2.38 0 0 Z " fill="#000457" transform="translate(1538,2068)"/>
<path d="M0 0 C0.33 0 0.66 0 1 0 C0.67 2.97 0.34 5.94 0 9 C-0.66 9 -1.32 9 -2 9 C-1.125 1.125 -1.125 1.125 0 0 Z " fill="#09C082" transform="translate(1237,2003)"/>
<path d="M0 0 C2.475 0.495 2.475 0.495 5 1 C4.01 1.495 4.01 1.495 3 2 C2.67 2.99 2.34 3.98 2 5 C1.34 5 0.68 5 0 5 C0 3.35 0 1.7 0 0 Z " fill="#000367" transform="translate(1471,2157)"/>
<path d="M0 0 C1.43088528 2.86177057 0.59991697 4.93375773 0 8 C-0.99 8.33 -1.98 8.66 -3 9 C-2.5020163 5.26512223 -2.12508244 3.18762365 0 0 Z " fill="#00093A" transform="translate(1465,2054)"/>
<path d="M0 0 C0.99 0 1.98 0 3 0 C3 0.99 3 1.98 3 3 C2.01 3.66 1.02 4.32 0 5 C-0.99 4.67 -1.98 4.34 -3 4 C-1.6875 2 -1.6875 2 0 0 Z " fill="#000947" transform="translate(1467,1867)"/>
</svg>
